# xmcd CD database file
#
# Track frame offsets:
#	150
#	21284
#	40669
#	62436
#	81690
#	99437
#	122622
#	153049
#	173632
#	184896
#	260286
#	289065
#	312768
#
# Disc length: 4449 seconds
#
# Revision: 0
# Processed by: cddbd v1.5.1PL2 Copyright (c) Steve Scherf et al.
# Submitted via: Feurio! 1.68 - http://www.feurio.com
#
DISCID=a2115f0d
DTITLE=Jürgen Kerth - Gloriosa
DYEAR=1900
DGENRE=Blues
TTITLE0=Komm herein
TTITLE1=Geburtstag im Internat
TTITLE2=Kindheit
TTITLE3=Kerth's Boogie
TTITLE4=Schwarze Perle
TTITLE5=Ich liebe die Eine
TTITLE6=Amazonas - Tanz der Alligatoren
TTITLE7=Ich finde keine Ruh'
TTITLE8=Blues für Jimi
TTITLE9=Gloriosa
TTITLE10=He, junge Mutti
TTITLE11=Blues von der grauen Maus
TTITLE12=Oh, wie würd' ich euch beneiden
EXTD=
EXTT0=
EXTT1=
EXTT2=
EXTT3=
EXTT4=
EXTT5=
EXTT6=
EXTT7=
EXTT8=
EXTT9=
EXTT10=
EXTT11=
EXTT12=
PLAYORDER=
